<?xml version="1.0" standalone="no"?>
<!DOCTYPE svg PUBLIC "-//W3C//DTD SVG 20010904//EN"
 "http://www.w3.org/TR/2001/REC-SVG-20010904/DTD/svg10.dtd">
<svg version="1.0" xmlns="http://www.w3.org/2000/svg"
 width="200.000000pt" height="200.000000pt" viewBox="0 0 200.000000 200.000000"
 preserveAspectRatio="xMidYMid meet">
<metadata>
Created by potrace 1.14, written by Peter Selinger 2001-2017
</metadata>
<g transform="translate(0.000000,200.000000) scale(0.100000,-0.100000)"
fill="#000000" stroke="none">
<path d="M1323 1844 c-64 -31 -148 -116 -190 -191 -31 -55 -32 -56 -41 -32
-17 42 -88 124 -138 157 -26 18 -49 31 -50 29 -2 -2 5 -25 15 -53 21 -56 38
-214 23 -214 -6 0 -12 6 -15 14 -7 17 -84 72 -121 85 l-25 10 24 -35 c24 -35
48 -100 61 -164 6 -34 6 -34 -12 -19 -30 26 -76 46 -116 52 l-37 5 34 -45 c19
-24 42 -65 51 -90 19 -49 12 -63 -31 -63 -11 0 -35 -13 -53 -29 -24 -23 -32
-38 -32 -64 0 -21 -7 -41 -20 -52 -12 -10 -30 -33 -40 -51 -11 -17 -29 -34
-40 -37 -16 -4 -20 -13 -19 -39 1 -18 -6 -60 -15 -92 -21 -80 -39 -223 -31
-263 6 -31 5 -32 -42 -38 -83 -10 -119 -18 -102 -22 9 -2 123 8 253 22 131 14
254 25 274 25 l37 0 -61 -29 c-39 -18 -71 -27 -88 -24 -30 6 -32 -3 -12 -52
16 -38 30 -43 55 -21 15 14 483 226 488 222 2 -2 -4 -29 -12 -62 -70 -275
-219 -403 -435 -375 -42 6 -95 19 -120 30 -24 11 -49 17 -54 13 -17 -10 83
-50 156 -62 233 -40 417 120 478 413 10 48 16 60 38 70 15 6 28 12 30 13 1 1
-3 13 -9 27 -10 21 -9 29 5 42 9 9 16 21 16 26 0 5 7 9 15 9 8 0 15 -6 15 -14
0 -8 7 -17 16 -20 23 -9 36 -7 29 4 -3 5 2 10 12 11 11 0 13 3 5 6 -7 3 -19 0
-26 -7 -10 -7 -16 -8 -21 0 -3 5 0 10 7 11 18 1 -22 17 -44 18 -10 1 -18 -5
-18 -13 0 -13 -40 -50 -46 -43 -1 1 -9 43 -18 94 -9 51 -27 121 -40 157 -29
77 -36 72 117 88 l110 11 -37 19 c-19 10 -59 25 -88 32 l-53 14 50 22 c28 12
101 36 163 54 63 18 107 36 99 39 -35 13 -182 29 -236 25 l-59 -4 29 36 c28
35 84 81 163 134 l39 26 -56 0 c-30 0 -91 -7 -134 -15 -43 -8 -82 -15 -87 -15
-20 0 2 129 37 215 20 49 35 91 33 92 -1 2 -25 -9 -53 -23z m-564 -799 c7 -4
9 10 5 42 l-7 48 34 -32 c36 -34 103 -67 155 -76 l31 -6 -29 31 c-15 16 -28
39 -28 49 0 25 42 41 86 33 28 -5 32 -9 23 -20 -6 -8 -18 -14 -26 -14 -8 0
-11 -4 -8 -10 10 -17 106 -12 127 7 10 9 21 13 26 9 4 -4 -4 -17 -18 -28 l-25
-21 54 5 c43 4 60 11 77 31 l22 26 28 -85 c15 -46 25 -86 23 -89 -3 -2 -157
21 -343 51 -186 29 -343 54 -347 54 -16 0 -10 16 22 57 l32 41 38 -48 c21 -27
43 -51 48 -55z m-163 -85 c11 0 13 -6 9 -20 -5 -16 -2 -20 15 -20 16 0 20 -4
15 -18 -5 -17 4 -20 82 -31 76 -11 88 -10 95 3 5 9 16 16 23 16 8 0 15 7 15
16 0 11 6 15 19 11 16 -4 21 1 23 22 2 21 9 27 35 29 31 3 32 3 26 -32 -4 -29
-2 -36 11 -36 9 0 16 -8 16 -20 0 -11 7 -20 15 -20 8 0 15 -8 15 -19 0 -16 12
-20 75 -30 98 -14 105 -14 105 4 0 8 9 15 20 15 11 0 20 7 20 16 0 11 6 14 20
9 16 -5 20 -2 20 15 0 16 5 20 15 16 8 -3 15 -1 15 5 0 6 5 7 10 4 6 -3 10
-19 10 -34 0 -27 -9 -32 -187 -111 -180 -80 -189 -83 -272 -86 -47 -1 -141 -9
-208 -16 l-121 -14 -6 29 c-3 16 -3 56 0 90 7 77 46 248 52 225 2 -10 10 -18
18 -18z"/>
<path d="M1523 863 c9 -2 17 -11 17 -19 0 -8 5 -14 11 -14 5 0 7 5 4 10 -3 6
0 10 7 11 18 1 -23 18 -42 17 -10 0 -9 -2 3 -5z"/>
<path d="M1515 840 c3 -5 8 -10 11 -10 2 0 4 5 4 10 0 6 -5 10 -11 10 -5 0 -7
-4 -4 -10z"/>
<path d="M685 570 c-11 -19 26 -100 46 -100 28 0 30 14 8 64 -19 44 -40 58
-54 36z"/>
<path d="M608 539 c-15 -9 -15 -13 4 -59 20 -49 31 -57 56 -42 10 7 8 18 -8
55 -24 54 -30 59 -52 46z"/>
<path d="M562 462 c9 -23 5 -45 -21 -123 -17 -52 -31 -101 -30 -109 0 -8 18
37 40 100 54 158 53 153 41 146 -6 -3 -13 -2 -17 4 -13 22 -23 9 -13 -18z"/>
<path d="M700 415 c0 -8 5 -15 10 -15 6 0 10 7 10 15 0 8 -4 15 -10 15 -5 0
-10 -7 -10 -15z"/>
<path d="M666 393 c-11 -11 -6 -23 9 -23 8 0 15 4 15 9 0 13 -16 22 -24 14z"/>
<path d="M635 359 c-10 -15 3 -25 16 -12 7 7 7 13 1 17 -6 3 -14 1 -17 -5z"/>
</g>
</svg>
